<svg width="411.414" height="90" viewBox="0 5 254.915 55.764" class="css-1j8o68f" xmlns="http://www.w3.org/2000/svg"><path d="M13.586 30.444c-2.209 0-4.757-.069-4.757 3.967v3.32h4.745v3.82H8.829v17.542H3.941V41.554H-.196v-3.82H3.95v-3.349c-.009-6.903 4.024-7.905 9.624-7.905v3.967zm13.493 7.287h4.886v21.367h-4.653l-.126-2.671c-1.423 1.952-3.74 3.077-6.582 3.077-4.756 0-7.686-2.614-7.686-7.393V37.728h4.934v13.315c0 3.224 1.952 4.46 4.224 4.46 2.694 0 4.992-1.532 5.009-5.5V37.729zm19.088-.406c4.779 0 7.686 2.634 7.686 7.387v14.383H48.93V45.777c0-3.23-1.952-4.46-4.203-4.46-2.695 0-5.01 1.533-5.035 5.5v12.278h-4.883V37.731h4.886v2.53c1.422-1.845 3.702-2.928 6.48-2.928zm19.355 22.148c-6.417 0-11.064-4.414-11.064-11.084 0-6.65 4.652-11.064 11.064-11.064 5.072 0 8.96 2.694 10.128 7.453l-4.54.593c-.826-2.714-2.928-4.12-5.626-4.12-3.572 0-6.132 2.825-6.132 7.135s2.577 7.134 6.132 7.134c2.695 0 4.797-1.382 5.626-4.097l4.54.573c-1.169 4.756-5.136 7.48-10.128 7.48zm18.33-.383c-3.82 0-6.118-2.252-6.118-6.245V41.554h-4.27v-3.82h1.463c2.252 0 3.29-.89 3.29-3.671v-3.31h4.46v6.986h4.653v3.82h-4.653v10.785c0 1.995 1.083 2.977 2.715 2.977h1.926v3.763h-3.483zM90.79 33.65a3.02 3.02 0 0 1-3.011-2.994 3.011 3.011 0 0 1 6.008 0 3.04 3.04 0 0 1-2.994 2.994zM88.286 59.09V37.728h4.908v21.367h-4.908zm17.216.406c-6.455 0-11.234-4.19-11.234-11.107 0-6.86 4.739-11.064 11.234-11.064 6.523 0 11.254 4.203 11.254 11.064 0 6.918-4.756 11.107-11.254 11.107zm-.043-3.947c3.713 0 6.434-2.825 6.434-7.158 0-4.315-2.715-7.14-6.434-7.14-3.654 0-6.328 2.825-6.328 7.135 0 4.33 2.671 7.157 6.328 7.157zm23.728-18.216c4.779 0 7.687 2.635 7.687 7.388v14.377h-4.923v-13.32c0-3.23-1.952-4.46-4.204-4.46-2.694 0-5.009 1.532-5.035 5.499v12.278h-4.88V37.731h4.886v2.53c1.422-1.845 3.702-2.928 6.475-2.928zm19.274 22.174c-6.661 0-10.548-5.162-10.548-15.566 0-10.385 3.82-15.544 10.548-15.544 6.691 0 10.532 5.162 10.532 15.544 0 10.407-3.91 15.566-10.532 15.566zm0-4.442c3.527 0 5.626-3.484 5.626-11.127 0-7.75-2.194-11.084-5.626-11.084-3.477 0-5.625 3.334-5.625 11.084 0 7.65 2.064 11.127 5.625 11.127zm20.997 4.43c-7.258 0-10.491-3.782-10.491-10.997l5.01-.236c0 4.43 1.038 6.918 5.478 6.918 3.54 0 5.645-2.142 5.645-5.162 0-3.334-2.251-5.122-5.22-5.122h-1.332v-3.924h1.275c2.295 0 4.097-1.825 4.097-4.304 0-2.458-1.938-3.996-4.54-3.996-3.584 0-4.373 2.545-4.373 5.528l-4.966-.21c0-6.245 3.46-9.596 9.296-9.596 5.291 0 9.17 3.446 9.17 7.906a6.829 6.829 0 0 1-4.037 6.305c2.91.826 5.625 3.23 5.625 7.65 0 5.607-4.356 9.258-10.632 9.258zm19.323-.405V26.474h4.926V59.09h-4.92zm12.8.406c-3.46 0-6.581-1.659-6.581-5.822 0-4.571 3.714-5.99 8.17-6.791l3.225-.593c1.404-.28 1.972-.916 1.972-1.926 0-2.634-2.053-3.504-4.19-3.504-2.308 0-4.203 1.025-4.528 3.76l-4.393-.8c.751-4.425 3.935-6.466 9.218-6.466 4.273 0 8.577 1.531 8.577 7.54v8.282c0 2.024.532 2.588 2.024 2.588h.336v3.334h-2.308c-2.402 0-3.841-.846-4.33-2.824h-.237c-1.658 2.335-4.393 3.23-6.96 3.23zm1.146-3.84c3.357 0 5.97-2.488 5.97-6.398l-5.455 1.21c-2.251.425-3.504 1.194-3.504 2.812 0 1.675 1.322 2.378 2.995 2.378zm25.28-18.328c5.527 0 10.108 4.272 10.108 11.107 0 6.88-4.572 11.153-10.108 11.153-3.167 0-5.882-1.489-7.134-3.91l-.127 3.415h-4.667V26.477h4.866l.026 14.588c1.295-2.358 3.947-3.74 7.044-3.74zm-1.097 18.114c3.524 0 6.328-2.715 6.328-7.007 0-4.273-2.813-6.988-6.328-6.988s-6.305 2.885-6.305 6.988c0 4.12 2.758 7.007 6.305 7.007zm19.456 4.06c-4.652 0-8.2-1.981-8.913-5.923l4.137-1.169c.573 2.422 2.378 3.585 4.779 3.585 1.759 0 3.67-.634 3.63-2.695-.043-2.421-3.147-2.715-6.564-3.866-2.758-.89-5.441-2.15-5.441-5.862 0-4.292 3.541-6.218 7.963-6.218 4.036 0 7.393 1.632 8.133 5.6l-3.866.915c-.573-2.252-2.278-3.141-4.247-3.141-1.759 0-3.483.68-3.483 2.447 0 2.041 2.504 2.458 5.228 3.19 3.334.87 6.987 2.142 6.987 6.662 0 4.738-3.947 6.48-8.34 6.48z" fill="#111"/></svg>