<svg xmlns="http://www.w3.org/2000/svg" xmlns:xlink="http://www.w3.org/1999/xlink" version="1.1" width="1000" height="1000" viewBox="0 0 1000 1000" xml:space="preserve">
<desc>Created with Fabric.js 3.5.0</desc>
<defs>
</defs>
<rect x="0" y="0" width="100%" height="100%" fill="#ffffff"/>
<g transform="matrix(1.3666 0 0 1.3666 499.9966 465.242)" id="509293">
<path style="stroke: none; stroke-width: 1; stroke-dasharray: none; stroke-linecap: butt; stroke-dashoffset: 0; stroke-linejoin: miter; stroke-miterlimit: 4; is-custom-font: none; font-file-url: none; fill: rgb(17,17,17); fill-rule: nonzero; opacity: 1;" vector-effect="non-scaling-stroke" transform=" translate(-127.2565, -43.031)" d="M 13.586 30.444 c -2.209 0 -4.757 -0.069 -4.757 3.967 v 3.32 h 4.745 v 3.82 H 8.829 v 17.542 H 3.941 V 41.554 H -0.196 v -3.82 H 3.95 v -3.349 c -0.009 -6.903 4.024 -7.905 9.624 -7.905 v 3.967 z m 13.493 7.287 h 4.886 v 21.367 h -4.653 l -0.126 -2.671 c -1.423 1.952 -3.74 3.077 -6.582 3.077 c -4.756 0 -7.686 -2.614 -7.686 -7.393 V 37.728 h 4.934 v 13.315 c 0 3.224 1.952 4.46 4.224 4.46 c 2.694 0 4.992 -1.532 5.009 -5.5 V 37.729 z m 19.088 -0.406 c 4.779 0 7.686 2.634 7.686 7.387 v 14.383 H 48.93 V 45.777 c 0 -3.23 -1.952 -4.46 -4.203 -4.46 c -2.695 0 -5.01 1.533 -5.035 5.5 v 12.278 h -4.883 V 37.731 h 4.886 v 2.53 c 1.422 -1.845 3.702 -2.928 6.48 -2.928 z m 19.355 22.148 c -6.417 0 -11.064 -4.414 -11.064 -11.084 c 0 -6.65 4.652 -11.064 11.064 -11.064 c 5.072 0 8.96 2.694 10.128 7.453 l -4.54 0.593 c -0.826 -2.714 -2.928 -4.12 -5.626 -4.12 c -3.572 0 -6.132 2.825 -6.132 7.135 s 2.577 7.134 6.132 7.134 c 2.695 0 4.797 -1.382 5.626 -4.097 l 4.54 0.573 c -1.169 4.756 -5.136 7.48 -10.128 7.48 z m 18.33 -0.383 c -3.82 0 -6.118 -2.252 -6.118 -6.245 V 41.554 h -4.27 v -3.82 h 1.463 c 2.252 0 3.29 -0.89 3.29 -3.671 v -3.31 h 4.46 v 6.986 h 4.653 v 3.82 h -4.653 v 10.785 c 0 1.995 1.083 2.977 2.715 2.977 h 1.926 v 3.763 h -3.483 z M 90.79 33.65 a 3.02 3.02 0 0 1 -3.011 -2.994 a 3.011 3.011 0 0 1 6.008 0 a 3.04 3.04 0 0 1 -2.994 2.994 z M 88.286 59.09 V 37.728 h 4.908 v 21.367 h -4.908 z m 17.216 0.406 c -6.455 0 -11.234 -4.19 -11.234 -11.107 c 0 -6.86 4.739 -11.064 11.234 -11.064 c 6.523 0 11.254 4.203 11.254 11.064 c 0 6.918 -4.756 11.107 -11.254 11.107 z m -0.043 -3.947 c 3.713 0 6.434 -2.825 6.434 -7.158 c 0 -4.315 -2.715 -7.14 -6.434 -7.14 c -3.654 0 -6.328 2.825 -6.328 7.135 c 0 4.33 2.671 7.157 6.328 7.157 z m 23.728 -18.216 c 4.779 0 7.687 2.635 7.687 7.388 v 14.377 h -4.923 v -13.32 c 0 -3.23 -1.952 -4.46 -4.204 -4.46 c -2.694 0 -5.009 1.532 -5.035 5.499 v 12.278 h -4.88 V 37.731 h 4.886 v 2.53 c 1.422 -1.845 3.702 -2.928 6.475 -2.928 z m 19.274 22.174 c -6.661 0 -10.548 -5.162 -10.548 -15.566 c 0 -10.385 3.82 -15.544 10.548 -15.544 c 6.691 0 10.532 5.162 10.532 15.544 c 0 10.407 -3.91 15.566 -10.532 15.566 z m 0 -4.442 c 3.527 0 5.626 -3.484 5.626 -11.127 c 0 -7.75 -2.194 -11.084 -5.626 -11.084 c -3.477 0 -5.625 3.334 -5.625 11.084 c 0 7.65 2.064 11.127 5.625 11.127 z m 20.997 4.43 c -7.258 0 -10.491 -3.782 -10.491 -10.997 l 5.01 -0.236 c 0 4.43 1.038 6.918 5.478 6.918 c 3.54 0 5.645 -2.142 5.645 -5.162 c 0 -3.334 -2.251 -5.122 -5.22 -5.122 h -1.332 v -3.924 h 1.275 c 2.295 0 4.097 -1.825 4.097 -4.304 c 0 -2.458 -1.938 -3.996 -4.54 -3.996 c -3.584 0 -4.373 2.545 -4.373 5.528 l -4.966 -0.21 c 0 -6.245 3.46 -9.596 9.296 -9.596 c 5.291 0 9.17 3.446 9.17 7.906 a 6.829 6.829 0 0 1 -4.037 6.305 c 2.91 0.826 5.625 3.23 5.625 7.65 c 0 5.607 -4.356 9.258 -10.632 9.258 z m 19.323 -0.405 V 26.474 h 4.926 V 59.09 h -4.92 z m 12.8 0.406 c -3.46 0 -6.581 -1.659 -6.581 -5.822 c 0 -4.571 3.714 -5.99 8.17 -6.791 l 3.225 -0.593 c 1.404 -0.28 1.972 -0.916 1.972 -1.926 c 0 -2.634 -2.053 -3.504 -4.19 -3.504 c -2.308 0 -4.203 1.025 -4.528 3.76 l -4.393 -0.8 c 0.751 -4.425 3.935 -6.466 9.218 -6.466 c 4.273 0 8.577 1.531 8.577 7.54 v 8.282 c 0 2.024 0.532 2.588 2.024 2.588 h 0.336 v 3.334 h -2.308 c -2.402 0 -3.841 -0.846 -4.33 -2.824 h -0.237 c -1.658 2.335 -4.393 3.23 -6.96 3.23 z m 1.146 -3.84 c 3.357 0 5.97 -2.488 5.97 -6.398 l -5.455 1.21 c -2.251 0.425 -3.504 1.194 -3.504 2.812 c 0 1.675 1.322 2.378 2.995 2.378 z m 25.28 -18.328 c 5.527 0 10.108 4.272 10.108 11.107 c 0 6.88 -4.572 11.153 -10.108 11.153 c -3.167 0 -5.882 -1.489 -7.134 -3.91 l -0.127 3.415 h -4.667 V 26.477 h 4.866 l 0.026 14.588 c 1.295 -2.358 3.947 -3.74 7.044 -3.74 z m -1.097 18.114 c 3.524 0 6.328 -2.715 6.328 -7.007 c 0 -4.273 -2.813 -6.988 -6.328 -6.988 s -6.305 2.885 -6.305 6.988 c 0 4.12 2.758 7.007 6.305 7.007 z m 19.456 4.06 c -4.652 0 -8.2 -1.981 -8.913 -5.923 l 4.137 -1.169 c 0.573 2.422 2.378 3.585 4.779 3.585 c 1.759 0 3.67 -0.634 3.63 -2.695 c -0.043 -2.421 -3.147 -2.715 -6.564 -3.866 c -2.758 -0.89 -5.441 -2.15 -5.441 -5.862 c 0 -4.292 3.541 -6.218 7.963 -6.218 c 4.036 0 7.393 1.632 8.133 5.6 l -3.866 0.915 c -0.573 -2.252 -2.278 -3.141 -4.247 -3.141 c -1.759 0 -3.483 0.68 -3.483 2.447 c 0 2.041 2.504 2.458 5.228 3.19 c 3.334 0.87 6.987 2.142 6.987 6.662 c 0 4.738 -3.947 6.48 -8.34 6.48 z" stroke-linecap="round"/>
</g>
</svg>